<svg width="1031" height="265" viewBox="0 0 1031 265" fill="none" xmlns="http://www.w3.org/2000/svg">
<path d="M353.06 160.43L367.31 66H396.38V199H376.62V103.62L362.18 199H342.42L326.84 104.95V199H308.6V66H337.67L353.06 160.43Z" fill="#1F2630"/>
<path d="M432.478 122.05H461.168V141.05H432.478V180H468.578V199H411.578V66H468.578V85H432.478V122.05Z" fill="#1F2630"/>
<path d="M475.273 66H539.873V85H518.023V199H497.123V85H475.273V66Z" fill="#1F2630"/>
<path d="M616.889 199H595.799L592.189 174.87H566.539L562.929 199H543.739L565.019 66H595.609L616.889 199ZM569.199 156.82H589.339L579.269 89.56L569.199 156.82Z" fill="#1F2630"/>
<path d="M685.151 85H660.831V165.94C660.831 172.653 660.008 178.163 658.361 182.47C656.715 186.777 654.498 190.197 651.711 192.73C648.925 195.137 645.695 196.847 642.021 197.86C638.475 198.873 634.738 199.38 630.811 199.38C628.911 199.38 627.201 199.38 625.681 199.38C624.161 199.38 622.515 199.253 620.741 199V180C621.881 180.127 623.085 180.19 624.351 180.19C625.618 180.19 626.821 180.19 627.961 180.19C631.255 180.19 634.041 179.367 636.321 177.72C638.728 176.073 639.931 172.653 639.931 167.46V66H706.051V199H685.151V85Z" fill="#1F2630"/>
<path d="M779.966 85H755.646V165.94C755.646 172.653 754.823 178.163 753.176 182.47C751.529 186.777 749.313 190.197 746.526 192.73C743.739 195.137 740.509 196.847 736.836 197.86C733.289 198.873 729.553 199.38 725.626 199.38C723.726 199.38 722.016 199.38 720.496 199.38C718.976 199.38 717.329 199.253 715.556 199V180C716.696 180.127 717.899 180.19 719.166 180.19C720.433 180.19 721.636 180.19 722.776 180.19C726.069 180.19 728.856 179.367 731.136 177.72C733.543 176.073 734.746 172.653 734.746 167.46V66H800.866V199H779.966V85Z" fill="#1F2630"/>
<path d="M821.77 180C822.91 180.127 824.114 180.19 825.38 180.19C826.647 180.19 827.85 180.19 828.99 180.19C830.637 180.19 832.157 180 833.55 179.62C835.07 179.24 836.337 178.543 837.35 177.53C838.49 176.517 839.314 175.06 839.82 173.16C840.454 171.26 840.77 168.853 840.77 165.94L810.37 66H831.27L854.26 143.9L873.26 66H894.16L866.8 164.04C864.394 173.16 861.924 180.19 859.39 185.13C856.984 189.943 854.387 193.427 851.6 195.58C848.814 197.607 845.774 198.747 842.48 199C839.314 199.253 835.767 199.38 831.84 199.38C829.94 199.38 828.23 199.38 826.71 199.38C825.19 199.38 823.544 199.253 821.77 199V180Z" fill="#1F2630"/>
<path d="M934.428 66C944.942 66 952.732 68.7867 957.798 74.36C962.992 79.9333 965.588 88.1033 965.588 98.87V116.16C965.588 126.927 962.992 135.097 957.798 140.67C952.732 146.243 944.942 149.03 934.428 149.03H924.548V199H903.648V66H934.428ZM924.548 85V130.03H934.428C937.722 130.03 940.255 129.143 942.028 127.37C943.802 125.597 944.688 122.303 944.688 117.49V97.54C944.688 92.7267 943.802 89.4333 942.028 87.66C940.255 85.8867 937.722 85 934.428 85H924.548Z" fill="#1F2630"/>
<path d="M995.984 199H975.084V66H1030.37V85H995.984V199Z" fill="#1F2630"/>
<path d="M0 0L124 92.6634L248 0V265L191.905 220.833V112.293L124 168.728L56.0952 112.293V220.833L0 265V0Z" fill="url(#paint0_linear_34_26)"/>
<path d="M84 169L124 203.462L164 169V233L124 265L84 233V169Z" fill="#404040"/>
<defs>
<linearGradient id="paint0_linear_34_26" x1="0" y1="0" x2="264.419" y2="247.456" gradientUnits="userSpaceOnUse">
<stop stop-color="#CC0100"/>
<stop offset="1" stop-color="#CC0100"/>
</linearGradient>
</defs>
</svg>
